# AST/ASF file generated using VICON BodyLanguage
# -----------------------------------------------
:version 1.10
:name VICON
:units
  mass 1.0
  length 0.45
  angle deg
:documentation
   .ast/.asf automatically generated from VICON data using
   VICON BodyBuilder and BodyLanguage model FoxedUp or BRILLIANT.MOD
:root
   order TX TY TZ RX RY RZ
   axis XYZ
   position 0 0 0  
   orientation 0 0 0 
:bonedata
  begin
     id 1 
     name lhipjoint
     direction 0.528046 -0.759594 0.379717 
     length 2.39752 
     axis 0 0 0  XYZ
  end
  begin
     id 2 
     name lfemur
     direction 0.34202 -0.939693 0  
     length 7.31175  
     axis 0 0 20  XYZ
    dof rx ry rz
    limits (-160.0 20.0)
           (-70.0 70.0)
           (-60.0 70.0)
  end
  begin
     id 3 
     name ltibia
     direction 0.34202 -0.939693 0   
     length 7.52482   
     axis 0 0 20   XYZ
    dof rx
    limits (-10.0 170.0)
  end
  begin
     id 4 
     name lfoot
     direction 0.0675379 -0.185559 0.980309   
     length 2.00961   
     axis -90 7.62852e-016 20   XYZ
    dof rx rz
    limits (-45.0 90.0)
           (-70.0 20.0)
  end
  begin
     id 5 
     name ltoes
     direction 1.5352e-011 -4.22286e-011 1   
     length 1.01383   
     axis -90 7.62852e-016 20   XYZ
    dof rx
    limits (-90.0 20.0)
  end
  begin
     id 6 
     name rhipjoint
     direction -0.510274 -0.769251 0.384544   
     length 2.36742  
     axis 0 0 0  XYZ 
  end
  begin
     id 7 
     name rfemur
     direction -0.34202 -0.939693 0   
     length 7.45325   
     axis 0 0 -20   XYZ
    dof rx ry rz
    limits (-160.0 20.0)
           (-70.0 70.0)
           (-70.0 60.0)
  end
  begin
     id 8 
     name rtibia
     direction -0.34202 -0.939693 0   
     length 7.49587   
     axis 0 0 -20   XYZ
    dof rx
    limits (-10.0 170.0)
 end
 begin
     id 9 
     name rfoot
     direction -0.106475 -0.292536 0.950308   
     length 2.20898  
     axis -90 -7.62852e-016 -20   XYZ
    dof rx rz
    limits (-45.0 90.0)
           (-20.0 70.0)
  end
  begin
     id 10 
     name rtoes
     direction -1.53597e-011 -4.22023e-011 1   
     length 1.10065   
     axis -90 -7.62852e-016 -20   XYZ
    dof rx
    limits (-90.0 20.0)
  end
  begin
     id 11 
     name lowerback
     direction 0.0260024 0.998026 -0.0571652   
     length 2.11214   
     axis 0 0 0   XYZ
    dof rx ry rz
    limits (-20.0 45.0)
           (-30.0 30.0)
           (-30.0 30.0)
  end
  begin
     id 12 
     name upperback
     direction 0.0216202 0.999542 -0.0211766   
     length 2.11689   
     axis 0 0 0   XYZ
    dof rx ry rz
    limits (-20.0 45.0)
           (-30.0 30.0)
           (-30.0 30.0)
  end
  begin
     id 13 
     name thorax
     direction 0.00883312 0.999944 0.00589057   
     length 2.11821   
     axis 0 0 0   XYZ
    dof rx ry rz
    limits (-20.0 45.0)
           (-30.0 30.0)
           (-30.0 30.0)
  end
  begin
     id 14 
     name lowerneck
     direction -0.059386 0.994433 0.0870401   
     length 1.81176   
     axis 0 0 0   XYZ
    dof rx ry rz
    limits (-20.0 45.0)
           (-30.0 30.0)
           (-30.0 30.0)
  end
  begin
     id 15 
     name upperneck
     direction 0.0506457 0.97328 -0.223967   
     length 1.82382   
     axis 0 0 0   XYZ
    dof rx ry rz
    limits (-20.0 45.0)
           (-30.0 30.0)
           (-30.0 30.0)
  end
  begin
     id 16
     name head
     direction 0.0205902 0.996147 -0.0852487  
     length 1.84805  
     axis 0 0 0   XYZ
    dof rx ry rz
    limits (-20.0 45.0)
           (-30.0 30.0)
           (-30.0 30.0)
  end
  begin
     id 17 
     name lclavicle
     direction 0.949493 0.303881 -0.0782325  
     length 3.60584  
     axis 0 0 0   XYZ
    dof ry rz
    limits (-20.0 10.0)
           (0.0 20.0)
  end
  begin
     id 18 
     name lhumerus
     direction 1 -4.48965e-011 1.48782e-027   
     length 4.95681   
     axis 180 -30 -90   XYZ
    dof rx ry rz
    limits (-60.0 90.0)
           (-90.0 90.0)
           (-90.0 90.0)
  end
  begin
     id 19
     name lradius
     direction 1 -4.48952e-011 2.06528e-027   
     length 3.40915   
     axis 180 -30 -90   XYZ
    dof rx
    limits (-10.0 170.0)
  end
  begin
     id 20
     name lwrist
     direction 1 -4.48964e-011 1.28021e-027   
     length 1.70457   
     axis -1.61767e-015 90 90   XYZ
    dof ry
    limits (-180.0 0.0)
 end
  begin
     id 21 
     name lhand
     direction 1 -4.49094e-011 2.54887e-027   
     length 0.616403   
     axis -1.63363e-015 90 90   XYZ
    dof rx rz
    limits (-90.0 90.0)
           (-45.0 45.0)
  end
  begin
     id 22 
     name lfingers
     direction 1 -4.49002e-011 5.11407e-027   
     length 0.49696   
     axis -3.26723e-015 90 90   XYZ
    dof rx
    limits (0.0 90.0)
  end
  begin
     id 23
     name lthumb
     direction 0.707107 -6.34998e-011 0.707107   
     length 0.713539   
     axis -90 45 -2.25915e-014   XYZ
    dof rx rz
    limits (-45.0 45.0)
           (-45.0 45.0)
  end
  begin
     id 24 
     name rclavicle
     direction -0.937751 0.334612 -0.0930482   
     length 3.46287  
     axis 0 0 0   XYZ 
    dof ry rz
    limits (-10.0 20.0)
           (-20.0 0.0)
  end
  begin
     id 25 
     name rhumerus
     direction -1 -4.48962e-011 3.59972e-027  
     length 5.352   
     axis 180 30 90   XYZ
    dof rx ry rz
    limits (-90.0 60.0)
           (-90.0 90.0)
           (-90.0 90.0)
  end
  begin
     id 26 
     name rradius
     direction -1 -4.48987e-011 -3.76925e-027   
     length 3.43721   
     axis 180 30 90   XYZ
    dof rx
    limits (-10.0 170.0)
  end
  begin
     id 27 
     name rwrist
     direction -1 -4.48943e-011 1.28112e-027   
     length 1.7186   
     axis -1.61767e-015 -90 -90   XYZ
    dof ry
    limits (-180.0 0.0)
  end
  begin
     id 28
     name rhand
     direction -1 -4.49027e-011 2.55483e-027   
     length 0.72009   
     axis -1.63363e-015 -90 -90   XYZ
    dof rx rz
    limits (-90.0 90.0)
           (-45.0 45.0)
  end
  begin
     id 29
     name rfingers
     direction -1 -4.48827e-011 5.14506e-027   
     length 0.580555   
     axis -3.26723e-015 -90 -90   XYZ
    dof rx
    limits (0.0 90.0)
  end
  begin
     id 30
     name rthumb
     direction -0.707107 -6.34936e-011 0.707107   
     length 0.833564   
     axis -90 -45 2.25915e-014   XYZ
    dof rx rz
    limits (-45.0 45.0)
           (-45.0 45.0)
  end
:hierarchy
  begin
    root lhipjoint rhipjoint lowerback
    lhipjoint lfemur
    lfemur ltibia
    ltibia lfoot
    lfoot ltoes
    rhipjoint rfemur
    rfemur rtibia
    rtibia rfoot
    rfoot rtoes
    lowerback upperback
    upperback thorax
    thorax lowerneck lclavicle rclavicle
    lowerneck upperneck
    upperneck head
    lclavicle lhumerus
    lhumerus lradius
    lradius lwrist
    lwrist lhand lthumb
    lhand lfingers
    rclavicle rhumerus
    rhumerus rradius
    rradius rwrist
    rwrist rhand rthumb
    rhand rfingers
  end

#!OML:ASF H:\Terrain\Patient Classification 1\Terrain2\Thursday\justin.ASF
:FULLY-SPECIFIED
:DEGREES
136
root -2.79692 15.2856 10.7299 -36.0986 81.6341 -54.0618
lowerback 20.9285 0.60431 6.61777
upperback 2.84451 2.82026 3.23397
thorax -8.4615 1.28397 -1.02895
lowerneck -19.9822 -1.85336 -5.9444
upperneck 21.8197 -1.51666 3.70327
head 10.3677 -0.69437 2.09763
rclavicle -2.98177e-014 -3.89618e-014
rhumerus -23.968 12.3 -85.3195
rradius 74.9132
rwrist -21.1096
rhand -23.5574 23.2797
rfingers 7.12502
rthumb 2.90476 -6.68029
lclavicle -2.98177e-014 -3.89618e-014
lhumerus -24.131 -9.8606 88.047
lradius 83.1016
lwrist 4.54332
lhand -31.67 4.65378
lfingers 7.12502
lthumb -4.93007 34.5764
rfemur -48.7131 1.84017 29.6131
rtibia 75.3326
rfoot -37.8136 -10.0662
rtoes 8.35694
lfemur -52.8078 -2.72936 -11.1343
ltibia 80.5061
lfoot -28.3153 0.528834
ltoes -25.2205
137
root -2.74635 15.2754 10.7398 -36.1917 81.7967 -54.2218
lowerback 20.7306 0.832038 6.25104
upperback 2.65481 3.02782 3.30491
thorax -8.57466 1.38572 -0.797343
lowerneck -20.0334 -2.01965 -6.12229
upperneck 21.5677 -1.75964 3.96673
head 10.3036 -0.788445 2.18232
rclavicle -1.23246e-014 3.18055e-015
rhumerus -24.2684 13.6613 -84.5951
rradius 78.9828
rwrist -21.1937
rhand -22.88 24.4006
rfingers 7.12502
rthumb 3.55895 -5.54943
lclavicle -1.23246e-014 3.18055e-015
lhumerus -22.5846 -10.4881 87.5034
lradius 86.8464
lwrist 3.38535
lhand -29.332 5.07262
lfingers 7.12502
lthumb -2.67235 35.0356
rfemur -48.552 2.04095 29.4808
rtibia 75.3281
rfoot -38.1166 -10.1459
rtoes 9.13901
lfemur -52.1803 -2.40955 -11.3825
ltibia 79.8433
lfoot -29.3453 1.30091
ltoes -26.2604
138
root -2.68725 15.2895 10.7513 -37.1044 81.9378 -55.1924
lowerback 20.5027 0.995891 5.82892
upperback 2.41874 3.16029 3.53445
thorax -8.7421 1.45686 -0.340825
lowerneck -20.2108 -2.08636 -6.54001
upperneck 21.5481 -1.80246 4.32345
head 10.3398 -0.798872 2.3734
rclavicle 1.63003e-014 4.77083e-015
rhumerus -24.8047 15.5147 -83.6398
rradius 83.3814
rwrist -21.328
rhand -21.7955 24.402
rfingers 7.12502
rthumb 4.60625 -5.52795
lclavicle 1.63003e-014 4.77083e-015
lhumerus -21.1617 -10.9585 86.9192
lradius 90.656
lwrist 2.68889
lhand -27.481 4.3947
lfingers 7.12502
lthumb -0.884675 34.3726
rfemur -48.1829 2.10108 29.4761
rtibia 75.0334
rfoot -38.0342 -10.5449
rtoes 8.88839
lfemur -51.3218 -2.20509 -11.3503
ltibia 78.8925
lfoot -30.2269 0.325914
ltoes -22.3419
139
root -2.61516 15.332 10.7613 -38.1341 82.394 -56.1581
lowerback 20.2656 1.07694 5.48019
upperback 2.14231 3.17654 3.54675
thorax -8.93716 1.464 -0.130473
lowerneck -20.1659 -2.18252 -6.69683
upperneck 21.5195 -1.96349 4.61601
head 10.3357 -0.849961 2.48071
rclavicle -4.53229e-014 -6.91771e-014
rhumerus -25.6104 16.666 -82.9333
rradius 87.9669
rwrist -20.9968
rhand -20.0625 24.1536
rfingers 7.12502
rthumb 6.27951 -5.73336
lclavicle -4.53229e-014 -6.91771e-014
lhumerus -20.1326 -12.1087 86.0869
lradius 94.6983
lwrist 3.15505
lhand -27.357 4.12708
lfingers 7.12502
lthumb -0.76491 34.1055
rfemur -47.5287 1.62669 29.2626
rtibia 74.4485
rfoot -37.8423 -10.9372
rtoes 8.37824
lfemur -50.209 -2.30244 -11.636
ltibia 77.574
lfoot -30.9385 -0.638352
ltoes -18.6061
140
root -2.53029 15.3943 10.7779 -38.6806 82.7674 -56.5656
lowerback 20.0335 1.16272 5.17426
upperback 1.82798 3.18939 3.38925
thorax -9.16339 1.46201 -0.12837
lowerneck -19.9234 -2.26105 -6.57472
upperneck 21.4793 -2.19269 4.88725
head 10.2918 -0.912564 2.52378
rclavicle 1.23246e-014 2.8625e-014
rhumerus -26.6903 17.3983 -82.62
rradius 92.4485
rwrist -20.302
rhand -18.5377 23.5092
rfingers 7.12502
rthumb 7.75137 -6.32871
lclavicle 1.23246e-014 2.8625e-014
lhumerus -19.5751 -13.3877 84.8048
lradius 98.9257
lwrist 3.59496
lhand -27.1234 4.4413
lfingers 7.12502
lthumb -0.539308 34.4204
rfemur -46.5891 1.17858 29.0385
rtibia 73.54
rfoot -37.7598 -10.7897
rtoes 8.45151
lfemur -48.8392 -2.03111 -12.1543
ltibia 75.9058
lfoot -31.5161 0.690621
ltoes -23.0275
141
root -2.4317 15.4808 10.7931 -42.3522 83.0333 -60.097
lowerback 19.7781 1.07437 5.45679
upperback 1.49722 3.09502 3.14153
thorax -9.36251 1.38473 -0.5269
lowerneck -19.8819 -2.33577 -6.46796
upperneck 21.6541 -2.49382 5.52493
head 10.3734 -0.962316 2.69503
rclavicle -2.94201e-014 -2.14687e-014
rhumerus -27.9513 18.4129 -82.7541
rradius 96.4346
rwrist -19.598
rhand -18.0671 23.0115
rfingers 7.12502
rthumb 8.20562 -6.80913
lclavicle -2.94201e-014 -2.14687e-014
lhumerus -19.1837 -14.535 82.9522
lradius 103.044
lwrist 3.59372
lhand -26.5956 4.90024
lfingers 7.12502
lthumb -0.0295055 34.88
rfemur -45.3627 0.487108 29.1965
rtibia 72.1982
rfoot -37.3166 -10.7328
rtoes 8.02118
lfemur -47.3384 -1.68889 -12.3451
ltibia 73.94
lfoot -31.6277 2.73239
ltoes -28.7324
142
root -2.3171 15.6009 10.8037 -47.9697 83.1923 -65.3267
lowerback 19.6434 0.863152 5.90675
upperback 1.29247 2.8991 3.01335
thorax -9.49511 1.26092 -0.865092
lowerneck -20.0375 -2.43652 -6.52346
upperneck 21.8436 -2.77002 6.15006
head 10.5008 -1.01311 2.89393
rclavicle 2.22639e-014 9.54166e-015
rhumerus -29.3 20.201 -82.5595
rradius 100.179
rwrist -19.1962
rhand -17.9609 23.0713
rfingers 7.12502
rthumb 8.30804 -6.74536
lclavicle 2.22639e-014 9.54166e-015
lhumerus -18.7767 -15.2062 81.142
lradius 106.693
lwrist 3.47439
lhand -27.0853 4.90806
lfingers 7.12502
lthumb -0.502507 34.8872
rfemur -43.5805 -0.595415 29.5322
rtibia 70.3935
rfoot -36.676 -10.6684
rtoes 6.41711
lfemur -45.3718 -1.6734 -12.2095
ltibia 71.7167
lfoot -31.5585 2.24771
ltoes -26.5587
143
root -2.179 15.7654 10.8242 -52.7143 83.4944 -68.8975
lowerback 20.1448 0.691375 5.70365
upperback 1.31935 2.6769 3.03592
thorax -9.76485 1.15946 -0.678118
lowerneck -20.0599 -2.54024 -6.43325
upperneck 21.9434 -2.95925 6.20952
head 10.5551 -1.08296 2.87425
rclavicle -4.57205e-015 1.90833e-014
rhumerus -30.8344 22.2084 -82.2348
rradius 103.643
rwrist -18.642
rhand -18.3742 23.3375
rfingers 7.12502
rthumb 7.90921 -6.49455
lclavicle -4.57205e-015 1.90833e-014
lhumerus -18.327 -15.096 79.9198
lradius 109.789
lwrist 3.32147
lhand -27.8666 4.23928
lfingers 7.12502
lthumb -1.25709 34.2153
rfemur -40.5438 -1.79455 29.4352
rtibia 68.1328
rfoot -36.2386 -9.73483
rtoes 6.29402
lfemur -42.1662 -2.03338 -12.2316
ltibia 69.1846
lfoot -31.3415 -0.745568
ltoes -16.9585
144
root -2.02843 15.955 10.8618 -52.4154 83.4846 -67.4313
lowerback 20.439 0.875182 5.09628
upperback 1.41589 2.79543 3.00234
thorax -9.83958 1.24074 -0.411599
lowerneck -19.8705 -2.66141 -6.20688
upperneck 21.9977 -3.22459 6.27293
head 10.5561 -1.17716 2.82087
rclavicle -3.27995e-014 -5.52621e-014
rhumerus -32.5472 23.829 -82.1613
rradius 106.729
rwrist -17.5241
rhand -18.9313 23.3475
rfingers 7.12502
rthumb 7.37144 -6.50405
lclavicle -3.27995e-014 -5.52621e-014
lhumerus -19.2209 -17.0845 77.3963
lradius 113.427
lwrist 4.3049
lhand -30.3891 4.39507
lfingers 7.12502
lthumb -3.69321 34.3428
rfemur -37.2832 -2.20521 29.1419
rtibia 65.4567
rfoot -35.3574 -8.23681
rtoes 7.63255
lfemur -38.737 -1.56478 -12.3692
ltibia 66.4024
lfoot -30.5357 -2.69029
ltoes -11.021
145
root -1.86296 16.153 10.851 -65.1105 84.4238 -79.5755
lowerback 19.644 0.34981 5.47331
upperback 1.46074 2.11253 2.88661
thorax -9.35827 0.912163 -0.547461
lowerneck -19.87 -2.84086 -6.39728
upperneck 22.3449 -3.51247 6.63109
head 10.7153 -1.27541 2.94775
rclavicle 7.7526e-015 2.50469e-014
rhumerus -34.1216 25.344 -81.9318
rradius 109.315
rwrist -14.9635
rhand -18.8951 23.5438
rfingers 7.12502
rthumb 7.40636 -6.30657
lclavicle 7.7526e-015 2.50469e-014
lhumerus -19.845 -18.7087 75.3575
lradius 116.586
lwrist 5.50466
lhand -32.1227 5.31462
lfingers 7.12502
lthumb -5.36724 35.2267
rfemur -34.6878 -4.15303 28.5347
rtibia 62.5347
rfoot -34.1087 -6.42322
rtoes 8.91247
lfemur -36.3409 -2.62096 -12.8379
ltibia 63.3831
lfoot -28.9339 -2.97346
ltoes -11.7279
146
root -1.67957 16.3733 10.8514 -76.9882 85.092 -90.6428
lowerback 18.9745 -0.0030057 5.29231
upperback 1.6384 1.5541 2.91554
thorax -8.82248 0.671865 -0.258248
lowerneck -20.0039 -3.00747 -6.89564
upperneck 22.8786 -3.66405 6.91207
head 10.9661 -1.34496 3.12423
rclavicle -2.38542e-015 1.27222e-014
rhumerus -35.5876 26.9202 -81.501
rradius 111.436
rwrist -11.4759
rhand -18.8597 24.0818
rfingers 7.12502
rthumb 7.44061 -5.7674
lclavicle -2.38542e-015 1.27222e-014
lhumerus -20.5219 -19.8962 73.8442
lradius 119.027
lwrist 6.43957
lhand -33.3541 6.18082
lfingers 7.12502
lthumb -6.5561 36.0593
rfemur -31.5734 -5.61959 27.8261
rtibia 59.3647
rfoot -32.2262 -5.75877
rtoes 7.11573
lfemur -33.3791 -3.59128 -13.3142
ltibia 60.1571
lfoot -26.7698 -4.36904
ltoes -8.91392
147
root -1.48369 16.6155 10.8691 -81.6458 85.4527 -94.5573
lowerback 18.3169 0.0165981 4.78323
upperback 1.69123 1.41396 2.88631
thorax -8.41733 0.630152 0.0384917
lowerneck -19.6354 -3.12321 -7.09621
upperneck 23.2042 -3.83161 7.09305
head 11.0387 -1.41536 3.20827
rclavicle 1.98785e-016 2.0276e-014
rhumerus -37.4282 28.1023 -81.3824
rradius 113.178
rwrist -7.97083
rhand -18.7194 24.498
rfingers 7.12502
rthumb 7.57604 -5.34631
lclavicle 1.98785e-016 2.0276e-014
lhumerus -21.4636 -21.3717 72.3654
lradius 120.812
lwrist 6.77991
lhand -34.5697 6.54525
lfingers 7.12502
lthumb -7.72944 36.384
rfemur -28.5199 -6.12311 27.2203
rtibia 56.2001
rfoot -29.4991 -5.77525
rtoes 2.77336
lfemur -30.2417 -3.90514 -13.5664
ltibia 56.8325
lfoot -23.9717 -6.51571
ltoes -2.68348
148
root -1.28111 16.886 10.8871 -80.0144 85.6183 -92.4367
lowerback 17.4598 0.367677 4.20459
upperback 1.56945 1.69702 2.90577
thorax -8.08369 0.786315 0.32568
lowerneck -18.7513 -3.24138 -7.08704
upperneck 23.4841 -4.05666 7.15127
head 10.9923 -1.51327 3.20366
rclavicle -1.17283e-014 -4.77083e-015
rhumerus -39.7705 28.8059 -81.4748
rradius 114.518
rwrist -4.25858
rhand -18.3553 24.8953
rfingers 7.12502
rthumb 7.92743 -4.93609
lclavicle -1.17283e-014 -4.77083e-015
lhumerus -22.6956 -23.2551 71.2651
lradius 121.971
lwrist 6.57826
lhand -35.3592 6.22546
lfingers 7.12502
lthumb -8.49142 36.0347
rfemur -25.8856 -5.91932 26.6536
rtibia 53.2301
rfoot -26.2269 -4.93549
rtoes -0.37755
lfemur -27.3328 -3.51288 -13.7316
ltibia 53.4125
lfoot -20.8497 -7.32155
ltoes -3.08615
149
root -1.07743 17.1835 10.8896 -77.7771 85.5685 -89.7934
lowerback 16.4441 0.689438 3.81733
upperback 1.50807 2.00463 3.16686
thorax -7.60404 0.958234 0.766428
lowerneck -17.882 -3.30519 -7.44633
upperneck 23.9213 -4.07069 7.12265
head 10.9954 -1.55787 3.26679
rclavicle 6.36111e-015 1.90833e-014
rhumerus -41.9349 29.5373 -81.2847
rradius 115.527
rwrist -1.23864
rhand -17.3471 25.1141
rfingers 7.12502
rthumb 8.90039 -4.6782
lclavicle 6.36111e-015 1.90833e-014
lhumerus -24.2184 -24.8511 70.7342
lradius 122.771
lwrist 5.71767
lhand -35.4866 6.27787
lfingers 7.12502
lthumb -8.61441 36.0821
rfemur -23.5072 -5.58776 26.2448
rtibia 50.5137
rfoot -22.5033 -3.78617
rtoes -2.96884
lfemur -24.6874 -2.95838 -13.7493
ltibia 49.9983
lfoot -17.1577 -7.47992
ltoes -9.28584
150
root -0.86898 17.502 10.8795 -75.0462 85.4712 -86.5874
lowerback 15.4109 0.765815 3.68408
upperback 1.60889 2.03454 3.4133
thorax -6.93681 0.992701 1.11334
lowerneck -17.2792 -3.16891 -7.92204
upperneck 24.5268 -3.73923 7.01744
head 11.0832 -1.46253 3.37707
rclavicle 6.16232e-015 3.4191e-014
rhumerus -43.6201 30.6658 -81.246
rradius 116.08
rwrist 0.900669
rhand -16.3833 24.8767
rfingers 7.12502
rthumb 9.8304 -4.87379
lclavicle 6.16232e-015 3.4191e-014
lhumerus -26.0702 -25.6454 70.1629
lradius 123.343
lwrist 4.46506
lhand -35.0182 5.72813
lfingers 7.12502
lthumb -8.16232 35.5505
rfemur -21.324 -5.26036 25.8352
rtibia 48.0627
rfoot -18.0033 -2.58934
rtoes -6.21429
lfemur -22.0705 -2.59571 -13.7311
ltibia 46.6091
lfoot -12.5198 -8.04533
ltoes -12.2418
